<?xml version="1.0" encoding="UTF-8" standalone="no"?>
<!-- Created with Inkscape (http://www.inkscape.org/) -->

<svg
   xmlns:dc="http://purl.org/dc/elements/1.1/"
   xmlns:cc="http://creativecommons.org/ns#"
   xmlns:rdf="http://www.w3.org/1999/02/22-rdf-syntax-ns#"
   xmlns:svg="http://www.w3.org/2000/svg"
   xmlns="http://www.w3.org/2000/svg"
   xmlns:sodipodi="http://sodipodi.sourceforge.net/DTD/sodipodi-0.dtd"
   xmlns:inkscape="http://www.inkscape.org/namespaces/inkscape"
   width="15.34346mm"
   height="15.34346mm"
   viewBox="0 0 15.34346 15.34346"
   version="1.1"
   id="svg8"
   inkscape:version="0.92.4 (5da689c313, 2019-01-14)"
   sodipodi:docname="logo.svg">
  <defs
     id="defs2" />
  <sodipodi:namedview
     id="base"
     pagecolor="#ffffff"
     bordercolor="#666666"
     borderopacity="1.0"
     inkscape:pageopacity="0.0"
     inkscape:pageshadow="2"
     inkscape:zoom="16"
     inkscape:cx="53.607262"
     inkscape:cy="25.516241"
     inkscape:document-units="mm"
     inkscape:current-layer="layer1"
     showgrid="false"
     fit-margin-top="1"
     fit-margin-left="1"
     fit-margin-right="1"
     fit-margin-bottom="1"
     inkscape:pagecheckerboard="true"
     inkscape:window-width="2481"
     inkscape:window-height="1359"
     inkscape:window-x="2178"
     inkscape:window-y="535"
     inkscape:window-maximized="0" />
  <metadata
     id="metadata5">
    <rdf:RDF>
      <cc:Work
         rdf:about="">
        <dc:format>image/svg+xml</dc:format>
        <dc:type
           rdf:resource="http://purl.org/dc/dcmitype/StillImage" />
        <dc:title></dc:title>
      </cc:Work>
    </rdf:RDF>
  </metadata>
  <g
     inkscape:label="Layer 1"
     inkscape:groupmode="layer"
     id="layer1"
     transform="translate(-9.2665567,-18.276863)">
    <g
       aria-label="B"
       style="font-style:normal;font-weight:normal;font-size:10.58333302px;line-height:1.25;font-family:sans-serif;letter-spacing:0px;word-spacing:0px;fill:#003f80;fill-opacity:1;stroke:none;stroke-width:0.26458332"
       id="text825">
      <path
         d="m 14.989865,32.620323 v -7.582958 h 2.418292 q 0.6985,0 1.201208,0.137583 0.508,0.137584 0.830792,0.391584 0.328083,0.254 0.481541,0.624416 0.153459,0.365125 0.153459,0.8255 0,0.280459 -0.08996,0.53975 -0.08467,0.259292 -0.259291,0.481542 -0.174625,0.22225 -0.4445,0.396875 -0.264584,0.174625 -0.624417,0.28575 0.830792,0.164042 1.254125,0.597958 0.423333,0.433917 0.423333,1.143 0,0.481542 -0.179916,0.878417 -0.174625,0.396875 -0.518584,0.682625 -0.338666,0.28575 -0.836083,0.4445 -0.497417,0.153458 -1.132417,0.153458 z m 1.021292,-3.455458 v 2.640542 h 1.640416 q 0.439209,0 0.756709,-0.100542 0.3175,-0.100542 0.518583,-0.280458 0.206375,-0.185209 0.301625,-0.433917 0.09525,-0.254 0.09525,-0.555625 0,-0.587375 -0.418042,-0.926042 -0.418041,-0.343958 -1.254125,-0.343958 z m 0,-0.73025 h 1.354666 q 0.433917,0 0.751417,-0.09525 0.322792,-0.09525 0.529167,-0.264583 0.211666,-0.169334 0.312208,-0.407459 0.100542,-0.243416 0.100542,-0.529166 0,-0.672042 -0.402167,-0.978959 -0.402167,-0.312208 -1.248833,-0.312208 h -1.397 z"
         style="font-style:normal;font-variant:normal;font-weight:normal;font-stretch:normal;font-size:10.58333302px;font-family:Lato;-inkscape-font-specification:'Lato, Normal';font-variant-ligatures:normal;font-variant-caps:normal;font-variant-numeric:normal;font-feature-settings:normal;text-align:start;writing-mode:lr-tb;text-anchor:start;fill:#003f80;fill-opacity:1;stroke-width:0.26458332"
         id="path861" />
    </g>
    <g
       aria-label="S"
       transform="matrix(0.26458333,0,0,0.26458333,2.6458334,0)"
       style="font-style:normal;font-weight:normal;font-size:40px;line-height:1.25;font-family:sans-serif;letter-spacing:0px;word-spacing:0px;fill:#807100;fill-opacity:1;stroke:none"
       id="flowRoot815">
      <path
         d="m 57.396484,76.216797 q 0.136719,0.390625 0.136719,0.566406 0,0.214844 -0.117187,0.3125 -0.09766,0.09766 -0.214844,0.351563 -0.09766,0.214843 -0.253906,0.3125 -0.136719,0.07813 -0.292969,0.15625 -0.136719,0.07813 -0.273438,0.175781 -0.136718,0.07813 -0.214843,0.273437 -0.136719,0.332032 -0.410157,0.488282 -0.253906,0.15625 -0.566406,0.15625 -0.3125,0 -0.625,-0.15625 -0.292969,-0.175782 -0.664062,-0.429688 -0.351563,-0.253906 -0.820313,-0.546875 -0.449219,-0.3125 -1.113281,-0.566406 -0.664063,-0.253906 -1.5625,-0.410156 -0.898438,-0.175782 -2.109375,-0.175782 -1.757813,0 -3.164063,0.507813 -1.386718,0.488281 -2.558593,1.738281 -0.78125,0.839844 -1.152344,1.738281 -0.371094,0.878907 -0.371094,1.699219 0,0.742188 0.332031,1.328125 0.351563,0.585938 0.9375,1.074219 0.585938,0.46875 1.367188,0.878906 0.800781,0.390625 1.699219,0.78125 0.917968,0.371094 1.894531,0.742188 0.996094,0.371093 1.972656,0.800781 1.445313,0.644531 2.597656,1.425781 1.152344,0.761719 1.953125,1.699219 0.800782,0.9375 1.230469,2.03125 0.429688,1.09375 0.429688,2.363281 0,1.621094 -0.566407,3.066406 -0.566406,1.425781 -1.738281,2.500001 -1.171875,1.07422 -2.949219,1.69922 -1.757812,0.64453 -4.160156,0.64453 -1.679687,0 -2.949219,-0.41016 -1.269531,-0.41015 -2.148437,-0.97656 -0.859375,-0.54687 -1.367188,-1.11328 -0.488281,-0.54688 -0.625,-0.85938 -0.09766,-0.214839 -0.136718,-0.351558 -0.01953,-0.15625 -0.01953,-0.253906 0,-0.214844 0.07813,-0.3125 0.09766,-0.09766 0.3125,-0.429688 0.07813,-0.136719 0.214844,-0.195312 0.136719,-0.07813 0.273438,-0.136719 0.15625,-0.07813 0.292968,-0.175781 0.136719,-0.09766 0.234375,-0.292969 0.3125,-0.644531 0.917969,-0.644531 0.332031,0 0.644531,0.234375 0.332032,0.214843 0.722657,0.546875 0.390625,0.332031 0.878906,0.742187 0.507812,0.390625 1.191406,0.722656 0.683594,0.332032 1.5625,0.566411 0.898438,0.21484 2.089844,0.21484 1.484375,0 2.5,-0.29297 1.015625,-0.292968 1.621094,-0.800781 0.625,-0.527343 0.898437,-1.230468 0.273438,-0.703125 0.273438,-1.523438 0,-1.015625 -0.390625,-1.757812 -0.371094,-0.742188 -1.054688,-1.308594 -0.664062,-0.566406 -1.601562,-0.996094 -0.9375,-0.449219 -2.070313,-0.878906 -1.113281,-0.429688 -2.382812,-0.878906 -1.25,-0.46875 -2.558594,-1.074219 -1.035156,-0.46875 -1.894531,-1.035156 -0.859375,-0.585938 -1.484375,-1.308594 -0.605469,-0.722656 -0.9375,-1.621094 -0.332032,-0.917969 -0.332032,-2.070312 0,-1.386719 0.410157,-2.714844 0.429687,-1.347656 1.191406,-2.519531 0.761719,-1.191407 1.816406,-2.1875 1.074219,-0.996094 2.34375,-1.71875 1.269531,-0.742188 2.714844,-1.132813 1.445312,-0.410156 2.988281,-0.410156 1.699219,0 2.988281,0.429687 1.289063,0.410157 2.167969,0.976563 0.878906,0.546875 1.367188,1.113281 0.488281,0.546875 0.605468,0.839844 z"
         style="font-style:normal;font-variant:normal;font-weight:normal;font-stretch:normal;font-size:40px;font-family:Engagement;-inkscape-font-specification:'Engagement, Normal';font-variant-ligatures:normal;font-variant-caps:normal;font-variant-numeric:normal;font-feature-settings:normal;text-align:start;writing-mode:lr-tb;text-anchor:start;fill:#807100;fill-opacity:1"
         id="path858" />
    </g>
    <rect
       style="fill:#003f80;fill-opacity:1;stroke:none;stroke-width:2.65255857;stroke-linejoin:round;stroke-miterlimit:4;stroke-dasharray:none;stroke-opacity:1"
       id="rect827"
       width="1.021032"
       height="2.7143724"
       x="14.990469"
       y="26.063951" />
  </g>
</svg>
